<?xml version="1.0" encoding="UTF-8"?>
<svg version="1.1" xmlns="http://www.w3.org/2000/svg" width="1024" height="1024">
<path d="M0 0 C337.92 0 675.84 0 1024 0 C1024 337.92 1024 675.84 1024 1024 C686.08 1024 348.16 1024 0 1024 C0 686.08 0 348.16 0 0 Z " fill="#141313" transform="translate(0,0)"/>
<path d="M0 0 C2.94635292 1.32886411 5.02362474 2.77435402 7.30331802 5.05722237 C8.25578112 6.00371232 8.25578112 6.00371232 9.2274859 6.96932328 C9.91620522 7.66386829 10.60492455 8.3584133 11.31451416 9.07400513 C12.05297128 9.8107534 12.79142841 10.54750168 13.55226302 11.30657566 C16.03213628 13.78314762 18.50478115 16.26681339 20.97753906 18.75048828 C22.75107603 20.52458922 24.52505317 22.29825022 26.29943848 24.07150269 C30.12200371 27.89361208 33.94147788 31.71876901 37.75818634 35.54672623 C43.27650889 41.081302 48.80034499 46.6103477 54.3255429 52.13805877 C63.28963035 61.1065236 72.24924226 70.07944579 81.20605469 79.05517578 C89.90683632 87.7743151 98.6097158 96.49135163 107.31542969 105.20556641 C107.852038 105.74270016 108.38864631 106.27983392 108.94151548 106.83324446 C111.63353135 109.5278704 114.32558856 112.22245503 117.01766634 114.91701913 C139.35152518 137.27161181 161.67805184 159.63351383 184 182 C182.67113589 184.94635292 181.22564598 187.02362474 178.94277763 189.30331802 C178.31178433 189.93829342 177.68079103 190.57326882 177.03067672 191.2274859 C176.33613171 191.91620522 175.6415867 192.60492455 174.92599487 193.31451416 C174.1892466 194.05297128 173.45249832 194.79142841 172.69342434 195.55226302 C170.21685238 198.03213628 167.73318661 200.50478115 165.24951172 202.97753906 C163.47541078 204.75107603 161.70174978 206.52505317 159.92849731 208.29943848 C156.10638792 212.12200371 152.28123099 215.94147788 148.45327377 219.75818634 C142.918698 225.27650889 137.3896523 230.80034499 131.86194123 236.3255429 C122.8934764 245.28963035 113.92055421 254.24924226 104.94482422 263.20605469 C96.2256849 271.90683632 87.50864837 280.6097158 78.79443359 289.31542969 C78.25729984 289.852038 77.72016608 290.38864631 77.16675554 290.94151548 C74.4721296 293.63353135 71.77754497 296.32558856 69.08298087 299.01766634 C46.72838819 321.35152518 24.36648617 343.67805184 2 366 C-0.94635292 364.67113589 -3.02362474 363.22564598 -5.30331802 360.94277763 C-5.93829342 360.31178433 -6.57326882 359.68079103 -7.2274859 359.03067672 C-7.91620522 358.33613171 -8.60492455 357.6415867 -9.31451416 356.92599487 C-10.05297128 356.1892466 -10.79142841 355.45249832 -11.55226302 354.69342434 C-14.03213628 352.21685238 -16.50478115 349.73318661 -18.97753906 347.24951172 C-20.75107603 345.47541078 -22.52505317 343.70174978 -24.29943848 341.92849731 C-28.12200371 338.10638792 -31.94147788 334.28123099 -35.75818634 330.45327377 C-41.27650889 324.918698 -46.80034499 319.3896523 -52.3255429 313.86194123 C-61.28963035 304.8934764 -70.24924226 295.92055421 -79.20605469 286.94482422 C-87.90683632 278.2256849 -96.6097158 269.50864837 -105.31542969 260.79443359 C-105.852038 260.25729984 -106.38864631 259.72016608 -106.94151548 259.16675554 C-109.63353135 256.4721296 -112.32558856 253.77754497 -115.01766634 251.08298087 C-137.35152518 228.72838819 -159.67805184 206.36648617 -182 184 C-180.67113589 181.05364708 -179.22564598 178.97637526 -176.94277763 176.69668198 C-175.99628768 175.74421888 -175.99628768 175.74421888 -175.03067672 174.7725141 C-174.33613171 174.08379478 -173.6415867 173.39507545 -172.92599487 172.68548584 C-172.1892466 171.94702872 -171.45249832 171.20857159 -170.69342434 170.44773698 C-168.21685238 167.96786372 -165.73318661 165.49521885 -163.24951172 163.02246094 C-161.47541078 161.24892397 -159.70174978 159.47494683 -157.92849731 157.70056152 C-154.10638792 153.87799629 -150.28123099 150.05852212 -146.45327377 146.24181366 C-140.918698 140.72349111 -135.3896523 135.19965501 -129.86194123 129.6744571 C-120.8934764 120.71036965 -111.92055421 111.75075774 -102.94482422 102.79394531 C-94.2256849 94.09316368 -85.50864837 85.3902842 -76.79443359 76.68457031 C-76.25729984 76.147962 -75.72016608 75.61135369 -75.16675554 75.05848452 C-72.4721296 72.36646865 -69.77754497 69.67441144 -67.08298087 66.98233366 C-44.72838819 44.64847482 -22.36648617 22.32194816 0 0 Z " fill="#010101" transform="translate(511,469)"/>
<path d="M0 0 C3.64464658 1.53920093 5.98516303 3.72663762 8.77766418 6.50350952 C9.24322887 6.96383752 9.70879355 7.42416553 10.18846625 7.89844286 C11.74476811 9.43976142 13.29385634 10.98812818 14.84301758 12.53662109 C15.95812518 13.64410645 17.07363415 14.75118781 18.18951416 15.8578949 C21.21684096 18.86328478 24.23757654 21.87521521 27.25649476 24.88904905 C29.14165867 26.77057047 31.02811434 28.65078684 32.91501427 30.53056717 C39.49390611 37.08497379 46.06706588 43.64507299 52.63549805 50.20996094 C58.76539147 56.33621294 64.90831003 62.44919033 71.05725557 68.55631387 C76.33236461 73.79679335 81.59787384 79.04678962 86.8560459 84.30426276 C89.99843125 87.44585322 93.14471031 90.58329547 96.30085182 93.71107101 C99.2659179 96.65007998 102.2189205 99.60068453 105.16291809 102.56079292 C106.24744109 103.6471399 107.33628163 104.72919552 108.42961693 105.80667305 C109.91728513 107.27406394 111.38885182 108.75589043 112.85725403 110.24252319 C113.6862814 111.06953924 114.51530878 111.89655529 115.3694582 112.74863243 C117 115 117 115 117.03693008 116.99678612 C115.60630688 119.76056383 113.75801264 121.61001595 111.55186462 123.80889893 C111.08548523 124.27784159 110.61910584 124.74678426 110.13859373 125.22993731 C108.57331595 126.80015827 106.99755346 128.3594135 105.42163086 129.91894531 C104.29770066 131.04202936 103.17443052 132.1657743 102.05177307 133.29013062 C99.00076021 136.3420053 95.94057652 139.38453277 92.87868953 142.42549229 C89.68091145 145.60453485 86.49160954 148.79205749 83.30140686 151.97869873 C77.25838334 158.01239261 71.20775217 164.03839749 65.15436512 170.061692 C58.26344171 176.91910005 51.38102032 183.78501398 44.49930751 190.6516633 C30.34232584 204.77727512 16.17467651 218.89214603 2 233 C-1.63477974 231.46586961 -3.94799239 229.29641318 -6.71951294 226.51426697 C-7.17887737 226.05590582 -7.6382418 225.59754467 -8.11152637 225.12529379 C-9.64701424 223.59075727 -11.17524494 222.04919346 -12.70361328 220.50756836 C-13.80395513 219.40502496 -14.90474567 218.3029292 -16.00595093 217.20124817 C-18.37481109 214.82945573 -20.74048113 212.4545422 -23.10373306 210.07716179 C-26.83810661 206.32053057 -30.57954776 202.57099259 -34.32199097 198.82240295 C-40.2377446 192.89526955 -46.14880537 186.9634813 -52.05784309 181.02965313 C-62.64735985 170.39579086 -73.24248766 159.76752613 -83.84281337 149.1444388 C-87.56469885 145.41412941 -91.283757 141.68103002 -95.00059152 137.94568813 C-97.3088831 135.62677893 -99.61918333 133.30987875 -101.92999649 130.99348259 C-103.00401267 129.9159862 -104.07715567 128.83761866 -105.14937592 127.75833511 C-106.60879136 126.28951522 -108.07122286 124.8237663 -109.53445435 123.35874939 C-110.353342 122.53634231 -111.17222965 121.71393522 -112.01593208 120.86660671 C-113.86534986 118.94767694 -113.86534986 118.94767694 -116 118 C-114.45592568 114.32728195 -112.23806501 111.99138795 -109.43161011 109.19110107 C-108.96437629 108.72215841 -108.49714247 108.25321574 -108.01575005 107.77006269 C-106.45124735 106.20226963 -104.87971104 104.64172509 -103.30810547 103.08105469 C-102.18424246 101.95775589 -101.06081979 100.83401637 -99.93780518 99.70986938 C-96.88876422 96.66025431 -93.83359346 93.6168476 -90.77729559 90.57450771 C-87.58397165 87.39368113 -84.39630564 84.20719484 -81.20803833 81.02130127 C-75.17013988 74.9896205 -69.12716099 68.96305637 -63.08234608 62.938308 C-56.20061807 56.07892998 -49.3245641 49.21387619 -42.44898391 42.3483367 C-28.30563276 28.22589409 -14.15516138 14.11060433 0 0 Z " fill="#010101" transform="translate(511,535)"/>
<path d="M0 0 C4.10941887 1.6271659 6.86075275 4.5876362 9.90985107 7.66934204 C10.49721676 8.25499888 11.08458245 8.84065572 11.6897471 9.44405973 C13.65830158 11.40931782 15.61961879 13.38164292 17.58105469 15.35400391 C18.99006421 16.76357751 20.39951416 18.17271099 21.80937195 19.58143616 C25.63788476 23.40937433 29.46019285 27.24345476 33.28143597 31.07864809 C37.27505651 35.08475747 41.27432838 39.0852169 45.27301025 43.08627319 C52.84528257 50.6647657 60.41244151 58.24834279 67.97778726 65.83374918 C76.59046162 74.46876574 85.20880477 83.09811489 93.82763433 91.72698712 C111.55808164 109.47834865 129.28138002 127.23683351 147 145 C143.5745267 149.0659216 140.10703134 153.0175072 136.33937073 156.77415466 C135.45775269 157.65570221 134.57613464 158.53724976 133.6678009 159.44551086 C132.70899694 160.39918272 131.75014842 161.35280979 130.79125977 162.30639648 C129.76703918 163.32869449 128.74304855 164.35122293 127.7192688 165.3739624 C125.52561472 167.56447136 123.33042073 169.7534208 121.13400459 171.9411602 C117.65491396 175.40664939 114.17971131 178.87602021 110.70506287 182.34596252 C102.70101962 190.33799703 94.69196463 198.32500292 86.68284607 206.31195068 C79.34084153 213.63373162 71.99992192 220.95659175 64.66305774 228.2835241 C61.21505312 231.72657222 57.76463134 235.16717327 54.31228459 238.60586727 C52.15797974 240.75266616 50.00579061 242.90157679 47.85414505 245.05104065 C46.86302431 246.04030341 45.8710467 247.02870861 44.87810707 248.01614571 C39.90327331 252.96429703 35.03699931 257.94139684 30.48744774 263.28614902 C27.93642315 266.22546303 25.17371613 268.94966504 22.41015625 271.6875 C21.82076767 272.27547363 21.23137909 272.86344727 20.62413025 273.46923828 C18.77262382 275.31522361 16.91764183 277.15766892 15.0625 279 C13.79338627 280.2640885 12.52450411 281.52840956 11.25585938 282.79296875 C8.1732368 285.86466724 5.08749572 288.93320008 2 292 C-3.88435357 287.11918584 -9.27587668 281.85346027 -14.66381836 276.43383789 C-15.61715152 275.47858177 -16.57071541 274.52355587 -17.52449036 273.56874084 C-19.56603413 271.52405385 -21.60601818 269.4778282 -23.64478874 267.43037605 C-26.87503811 264.18651488 -30.10917817 260.94655119 -33.34388733 257.70713806 C-40.79408748 250.24493388 -48.23925637 242.77771654 -55.68436432 235.31043243 C-62.5097479 228.4648193 -69.33621416 221.62029501 -76.16675478 214.77982706 C-79.37564423 211.56598452 -82.5820864 208.34972686 -85.78661525 205.1315366 C-87.78809851 203.12254141 -89.79169875 201.11566748 -91.79585075 199.10933495 C-93.15334897 197.74910242 -94.50832196 196.38635118 -95.8631897 195.02349854 C-100.21758479 190.66873157 -104.64144541 186.47561427 -109.3118372 182.461339 C-111.29674046 180.74312998 -113.17667888 178.94386401 -115.02929688 177.08422852 C-116.04944885 176.06396324 -116.04944885 176.06396324 -117.09020996 175.02308655 C-118.14383728 173.9617173 -118.14383728 173.9617173 -119.21875 172.87890625 C-119.96209595 172.13414536 -120.70544189 171.38938446 -121.47131348 170.62205505 C-123.81659301 168.27123255 -126.15834836 165.91693569 -128.5 163.5625 C-130.10132961 161.95614801 -131.70288998 160.35002603 -133.3046875 158.74414062 C-137.20579473 154.83208015 -141.1040242 150.91717048 -145 147 C-143.3728341 142.89058113 -140.4123638 140.13924725 -137.33065796 137.09014893 C-136.74500112 136.50278324 -136.15934428 135.91541755 -135.55594027 135.3102529 C-133.59068218 133.34169842 -131.61835708 131.38038121 -129.64599609 129.41894531 C-128.23642249 128.00993579 -126.82728901 126.60048584 -125.41856384 125.19062805 C-121.59062567 121.36211524 -117.75654524 117.53980715 -113.92135191 113.71856403 C-109.91524253 109.72494349 -105.9147831 105.72567162 -101.91372681 101.72698975 C-94.3352343 94.15471743 -86.75165721 86.58755849 -79.16625082 79.02221274 C-70.53123426 70.40953838 -61.90188511 61.79119523 -53.27301288 53.17236567 C-35.52165135 35.44191836 -17.76316649 17.71861998 0 0 Z M-4.64431763 33.39035034 C-5.11971855 33.86263128 -5.59511947 34.33491223 -6.08492649 34.82150471 C-7.68659208 36.41515333 -9.28096771 38.01590395 -10.87548828 39.61669922 C-12.01821056 40.75671327 -13.16135827 41.89630101 -14.30490112 43.03549194 C-17.41683198 46.13827643 -20.52236865 49.24738897 -23.6265626 52.35791159 C-26.86938413 55.60578151 -30.11706525 58.84878604 -33.36398315 62.09255981 C-38.8167376 67.54167122 -44.26525132 72.9949963 -49.71142578 78.45068359 C-56.0163208 84.76646379 -62.32838877 91.07500642 -68.64423192 97.37983692 C-74.05767457 102.78421632 -79.46722566 108.19246779 -84.87351787 113.60400021 C-88.10641046 116.84001781 -91.34065558 120.07465247 -94.57840347 123.30581284 C-97.6214684 126.34311889 -100.65963433 129.38524029 -103.69401932 132.43121719 C-104.81138698 133.55123927 -105.93047842 134.66954456 -107.05136871 135.78604126 C-108.57545036 137.30469676 -110.09329851 138.82931391 -111.60964966 140.35568237 C-112.46247591 141.20926268 -113.31530216 142.06284298 -114.19397163 142.94228935 C-116.21988271 144.79421382 -116.21988271 144.79421382 -116 147 C-114.57792954 148.44252216 -114.57792954 148.44252216 -112.6763916 149.95570374 C-107.22884795 154.59321351 -102.22386649 159.64365244 -97.17773438 164.70874023 C-96.11274356 165.77401369 -95.04753138 166.83906587 -93.9821167 167.90391541 C-91.1126708 170.77307632 -88.24630212 173.64529323 -85.38050652 176.51809955 C-82.37677293 179.52811659 -79.37017623 182.5352711 -76.3638916 185.54273987 C-70.68142563 191.22830451 -65.00151193 196.91641172 -59.32252741 202.60545355 C-52.85286912 209.08631863 -46.38034533 215.56431869 -39.90758801 222.04208839 C-26.60188426 235.35822333 -13.29975486 248.67792362 0 262 C3.64464658 260.46079907 5.98516303 258.27336238 8.77766418 255.49649048 C9.24322887 255.03616248 9.70879355 254.57583447 10.18846625 254.10155714 C11.74476811 252.56023858 13.29385634 251.01187182 14.84301758 249.46337891 C15.95812518 248.35589355 17.07363415 247.24881219 18.18951416 246.1421051 C21.21684096 243.13671522 24.23757654 240.12478479 27.25649476 237.11095095 C29.14165867 235.22942953 31.02811434 233.34921316 32.91501427 231.46943283 C39.49390611 224.91502621 46.06706588 218.35492701 52.63549805 211.79003906 C58.76539147 205.66378706 64.90831003 199.55080967 71.05725557 193.44368613 C76.33236461 188.20320665 81.59787384 182.95321038 86.8560459 177.69573724 C89.99843125 174.55414678 93.14471031 171.41670453 96.30085182 168.28892899 C99.2659179 165.34992002 102.2189205 162.39931547 105.16291809 159.43920708 C106.24744109 158.3528601 107.33628163 157.27080448 108.42961693 156.19332695 C109.91728513 154.72593606 111.38885182 153.24410957 112.85725403 151.75747681 C113.6862814 150.93046076 114.51530878 150.10344471 115.3694582 149.25136757 C117.18686782 147.19364822 117.18686782 147.19364822 117.03608894 145.00321388 C115.60828792 142.24264893 113.76516243 140.39049985 111.56532288 138.19110107 C111.10035461 137.72215841 110.63538635 137.25321574 110.15632814 136.77006269 C108.59573704 135.19984348 107.02464433 133.64057716 105.45336914 132.08105469 C104.33269749 130.9579553 103.21267208 129.83421074 102.09324646 128.70986938 C99.05058174 125.65779129 95.99857415 122.61521652 92.94455266 119.57450771 C89.7536232 116.39488155 86.57039707 113.20756009 83.38609314 110.02130127 C78.03871505 104.67304004 72.68538391 99.33079522 67.32836914 93.9921875 C61.12754604 87.8125485 54.93561633 81.62410886 48.74849612 75.43075252 C42.80355129 69.48012177 36.85296603 63.53516425 30.89956474 57.59299469 C28.36235851 55.06044304 25.82705878 52.52600488 23.29323006 49.99007416 C20.312645 47.00761145 17.32713952 44.03016416 14.33768654 41.05659103 C13.23863234 39.96179458 12.14128935 38.86527731 11.04574966 37.76696396 C9.55561583 36.27362923 8.0595215 34.78654259 6.56166077 33.30096436 C5.72412797 32.46548443 4.88659517 31.6300045 4.02368259 30.769207 C0.04701365 27.29259928 -1.42955814 30.17843076 -4.64431763 33.39035034 Z " fill="#FCFCFC" transform="translate(511,506)"/>
<path d="M0 0 C3.0416358 1.36086202 5.14095116 2.89178791 7.49072647 5.24463081 C8.50589069 6.25382188 8.50589069 6.25382188 9.54156327 7.28340065 C10.27697398 8.02463704 11.01238469 8.76587343 11.77008057 9.52957153 C12.55754032 10.31532244 13.34500007 11.10107334 14.15632224 11.91063488 C16.80202896 14.55303911 19.44050941 17.20254361 22.07910156 19.85205078 C23.97086511 21.74437828 25.86302071 23.63630594 27.75567627 25.52774048 C31.83390707 29.60492235 35.90845869 33.68575141 39.98053741 37.7690773 C45.86809012 43.67288095 51.76115473 49.57115721 57.65558121 55.46809708 C67.2186398 65.0355334 76.7772231 74.60742796 86.33300781 84.18212891 C95.61582119 93.48329904 104.90073187 102.78236723 114.18847656 112.07861328 C114.76092882 112.65159099 115.33338108 113.22456869 115.92318037 113.81490935 C118.7950051 116.68934415 121.66687117 119.56373764 124.5387578 122.43811059 C148.36558511 146.28567285 172.18515573 170.14047116 196 194 C191.60991389 199.25186165 186.9898059 204.15022818 182.14126587 208.97898865 C181.36843148 209.75267747 180.59559708 210.52636628 179.79934347 211.32350022 C177.22227465 213.90220948 174.64166033 216.47734034 172.06103516 219.05249023 C170.2077421 220.90550108 168.35466948 222.75873243 166.50180054 224.61216736 C162.51909514 228.59539569 158.53457104 232.57679711 154.54878616 236.55694389 C148.78609788 242.31148589 143.02619114 248.06880549 137.26694743 253.82679463 C127.92162068 263.16993578 118.57406554 272.51084416 109.22509766 281.8503418 C100.14644836 290.91980426 91.06885577 299.99032224 81.99267578 309.06225586 C81.43269695 309.62197196 80.87271813 310.18168807 80.29577024 310.75836527 C77.48637143 313.56645899 74.67699331 316.37457341 71.86762547 319.18269813 C48.581624 342.45834229 25.29200139 365.73035995 2 389 C-1.0416358 387.63913798 -3.14095116 386.10821209 -5.49072647 383.75536919 C-6.16750262 383.08257514 -6.84427876 382.40978109 -7.54156327 381.71659935 C-8.27697398 380.97536296 -9.01238469 380.23412657 -9.77008057 379.47042847 C-10.55754032 378.68467756 -11.34500007 377.89892666 -12.15632224 377.08936512 C-14.80202896 374.44696089 -17.44050941 371.79745639 -20.07910156 369.14794922 C-21.97086511 367.25562172 -23.86302071 365.36369406 -25.75567627 363.47225952 C-29.83390707 359.39507765 -33.90845869 355.31424859 -37.98053741 351.2309227 C-43.86809012 345.32711905 -49.76115473 339.42884279 -55.65558121 333.53190292 C-65.2186398 323.9644666 -74.7772231 314.39257204 -84.33300781 304.81787109 C-93.61582119 295.51670096 -102.90073187 286.21763277 -112.18847656 276.92138672 C-112.76092882 276.34840901 -113.33338108 275.77543131 -113.92318037 275.18509065 C-116.7950051 272.31065585 -119.66687117 269.43626236 -122.5387578 266.56188941 C-146.36558511 242.71432715 -170.18515573 218.85952884 -194 195 C-189.60991389 189.74813835 -184.9898059 184.84977182 -180.14126587 180.02101135 C-179.36843148 179.24732253 -178.59559708 178.47363372 -177.79934347 177.67649978 C-175.22227465 175.09779052 -172.64166033 172.52265966 -170.06103516 169.94750977 C-168.2077421 168.09449892 -166.35466948 166.24126757 -164.50180054 164.38783264 C-160.51909514 160.40460431 -156.53457104 156.42320289 -152.54878616 152.44305611 C-146.78609788 146.68851411 -141.02619114 140.93119451 -135.26694743 135.17320537 C-125.92162068 125.83006422 -116.57406554 116.48915584 -107.22509766 107.1496582 C-98.14644836 98.08019574 -89.06885577 89.00967776 -79.99267578 79.93774414 C-79.43269695 79.37802804 -78.87271813 78.81831193 -78.29577024 78.24163473 C-75.48637143 75.43354101 -72.67699331 72.62542659 -69.86762547 69.81730187 C-46.581624 46.54165771 -23.29200139 23.26964005 0 0 Z M-1.41538632 13.16698933 C-1.96749968 13.71986213 -2.51961304 14.27273493 -3.08845711 14.84236145 C-3.7264172 15.47633945 -4.36437729 16.11031744 -5.02166951 16.76350689 C-5.72399641 17.47165948 -6.42632332 18.17981207 -7.14993286 18.90942383 C-7.89484824 19.65263036 -8.63976362 20.39583689 -9.40725219 21.16156483 C-11.92098251 23.67198109 -14.42746293 26.18951592 -16.93408203 28.70703125 C-18.72702831 30.50054123 -20.52041423 32.29361181 -22.31420898 34.08627319 C-26.18482818 37.95643584 -30.05234744 41.82965556 -33.91711807 45.70565796 C-39.50498297 51.30975172 -45.09833841 56.90833862 -50.69306515 62.50558102 C-59.76918096 71.58607805 -68.84081809 80.67103584 -77.90966797 89.75878906 C-86.72113165 98.58860051 -95.53468583 107.41631659 -104.35107422 116.24121094 C-105.16573584 117.05666073 -105.16573584 117.05666073 -105.99685527 117.88858426 C-108.72138059 120.61571958 -111.44594721 123.34281363 -114.17053437 126.06988716 C-136.78676441 148.70686298 -159.39573776 171.35107345 -182 194 C-180.67113589 196.94635292 -179.22564598 199.02362474 -176.94277763 201.30331802 C-175.99628768 202.25578112 -175.99628768 202.25578112 -175.03067672 203.2274859 C-173.98885921 204.26056489 -173.98885921 204.26056489 -172.92599487 205.31451416 C-172.1892466 206.05297128 -171.45249832 206.79142841 -170.69342434 207.55226302 C-168.21685238 210.03213628 -165.73318661 212.50478115 -163.24951172 214.97753906 C-161.47541078 216.75107603 -159.70174978 218.52505317 -157.92849731 220.29943848 C-154.10638792 224.12200371 -150.28123099 227.94147788 -146.45327377 231.75818634 C-140.918698 237.27650889 -135.3896523 242.80034499 -129.86194123 248.3255429 C-120.8934764 257.28963035 -111.92055421 266.24924226 -102.94482422 275.20605469 C-94.2256849 283.90683632 -85.50864837 292.6097158 -76.79443359 301.31542969 C-76.25729984 301.852038 -75.72016608 302.38864631 -75.16675554 302.94151548 C-72.4721296 305.63353135 -69.77754497 308.32558856 -67.08298087 311.01766634 C-44.72838819 333.35152518 -22.36648617 355.67805184 0 378 C2.94635292 376.67113589 5.02362474 375.22564598 7.30331802 372.94277763 C7.93829342 372.31178433 8.57326882 371.68079103 9.2274859 371.03067672 C10.26056489 369.98885921 10.26056489 369.98885921 11.31451416 368.92599487 C12.05297128 368.1892466 12.79142841 367.45249832 13.55226302 366.69342434 C16.03213628 364.21685238 18.50478115 361.73318661 20.97753906 359.24951172 C22.75107603 357.47541078 24.52505317 355.70174978 26.29943848 353.92849731 C30.12200371 350.10638792 33.94147788 346.28123099 37.75818634 342.45327377 C43.27650889 336.918698 48.80034499 331.3896523 54.3255429 325.86194123 C63.28963035 316.8934764 72.24924226 307.92055421 81.20605469 298.94482422 C89.90683632 290.2256849 98.6097158 281.50864837 107.31542969 272.79443359 C107.852038 272.25729984 108.38864631 271.72016608 108.94151548 271.16675554 C111.63353135 268.4721296 114.32558856 265.77754497 117.01766634 263.08298087 C139.35152518 240.72838819 161.67805184 218.36648617 184 196 C182.67176985 193.0563233 181.2270909 190.97676637 178.94836426 188.69668198 C178.0037244 187.74421888 178.0037244 187.74421888 177.04000092 186.7725141 C176.34682014 186.08379478 175.65363937 185.39507545 174.93945312 184.68548584 C174.20411598 183.94702872 173.46877884 183.20857159 172.71115875 182.44773698 C170.23927173 179.96785538 167.76027643 177.4952041 165.28125 175.02246094 C163.51040776 173.24890954 161.73999148 171.47493275 159.9699707 169.70056152 C155.65674406 165.3791501 151.3388407 161.0624608 147.01862335 156.74803945 C143.50910297 153.24303304 140.00153615 149.7360828 136.49536133 146.2277298 C135.74728643 145.4791952 135.74728643 145.4791952 134.98409891 144.7155387 C133.97104896 143.70184931 132.95800351 142.68815543 131.9449625 141.6744571 C122.44424342 132.16803403 112.93740184 122.66775274 103.42846012 113.16955546 C95.26262931 105.0126657 87.10206425 96.85053862 78.9453125 88.68457031 C69.47834543 79.20691129 60.00815669 69.73249084 50.53276825 60.26325059 C49.52338752 59.25450698 48.51401098 58.24575918 47.50463867 57.23700714 C47.00797022 56.74064724 46.51130177 56.24428735 45.99958277 55.73288624 C42.49307112 52.22810436 38.98889163 48.72100101 35.4855957 45.21300507 C30.77573987 40.49696956 26.06063191 35.78623181 21.34188843 31.0790863 C19.60586678 29.34572054 17.87156586 27.61062955 16.1390686 25.87374115 C13.7841336 23.51338598 11.42319855 21.15920671 9.06054688 18.80657959 C8.02077572 17.76011627 8.02077572 17.76011627 6.95999908 16.69251227 C6.33023918 16.06796787 5.70047928 15.44342346 5.05163574 14.79995346 C4.50668205 14.25532448 3.96172836 13.71069549 3.40026093 13.1495626 C1.43434861 11.53562106 0.54426812 11.55124966 -1.41538632 13.16698933 Z " fill="#F3F1EE" transform="translate(511,457)"/>
<path d="M0 0 C3.26762579 1.63381289 4.78449684 2.53490443 7.22523117 4.97913551 C7.84278959 5.59271184 8.46034801 6.20628816 9.09662032 6.8384577 C10.1005172 7.85109311 10.1005172 7.85109311 11.12469482 8.88418579 C12.20175387 9.95868156 12.20175387 9.95868156 13.30057168 11.05488431 C15.7113477 13.46235958 18.11489437 15.87692571 20.51855469 18.29150391 C22.24283119 20.01634439 23.9675479 21.74074492 25.69267273 23.46473694 C29.40883142 27.18043982 33.12190547 30.89919588 36.83220673 34.62074661 C42.19668333 40.00147748 47.56667424 45.37667706 52.93802693 50.7505428 C61.65254311 59.46943619 70.36258361 68.19278653 79.06982422 76.91894531 C87.52809261 85.39557181 95.98845908 93.87009513 104.45166016 102.34179688 C105.23417015 103.12509504 105.23417015 103.12509504 106.03248844 103.92421742 C108.64958395 106.54392301 111.26672081 109.16358728 113.88387823 111.78323102 C135.59566683 133.51575295 157.30012299 155.25558405 179 177 C176.6875 179.5 176.6875 179.5 174 182 C171 182 171 182 169.54377156 180.91636705 C169.03152884 180.40298517 168.51928611 179.88960328 167.99152088 179.36066437 C167.39685388 178.77197052 166.80218689 178.18327666 166.18949968 177.5767436 C165.54066794 176.91917334 164.8918362 176.26160308 164.2233429 175.58410645 C163.53065927 174.8939861 162.83797565 174.20386575 162.12430161 173.49283266 C159.79091839 171.1644148 157.46846077 168.82539086 155.14575195 166.48632812 C153.48095012 164.82068062 151.81548848 163.15569235 150.14941406 161.49131775 C145.61613345 156.95890084 141.09218701 152.41726791 136.56980157 147.87398338 C132.32540922 143.61135573 128.07270769 139.35702319 123.82073428 135.10196048 C115.39764267 126.67229878 106.9812759 118.23595573 98.5690918 109.79541016 C90.39616978 101.59496199 82.22011092 93.39766248 74.03979492 85.20458984 C73.53578084 84.69978759 73.03176676 84.19498534 72.51247952 83.67488605 C69.98403499 81.14252648 67.45552846 78.61022881 64.92699111 76.07796192 C43.94170781 55.06156536 22.96742733 34.03421132 2 13 C-0.84932051 14.29524967 -2.9077794 15.65838803 -5.11590958 17.86981392 C-5.70908423 18.45900647 -6.30225888 19.04819903 -6.91340852 19.6552459 C-7.55543647 20.30309953 -8.19746441 20.95095316 -8.85894775 21.61843872 C-9.8931295 22.65005719 -9.8931295 22.65005719 -10.9482038 23.70251644 C-13.26224374 26.01325643 -15.56905286 28.33108287 -17.87597656 30.64892578 C-19.53128842 32.30480164 -21.18704051 33.9602375 -22.84320068 35.61526489 C-27.34317791 40.11466718 -31.83695254 44.62021898 -36.32966328 49.1268754 C-40.54855021 53.3569819 -44.77203406 57.58249152 -48.99550459 61.80802046 C-57.36062098 70.17751382 -65.72126152 78.55146353 -74.07910156 86.92822266 C-82.19785138 95.06533122 -90.31869966 103.20033603 -98.44238281 111.33251953 C-98.94314718 111.83380934 -99.44391154 112.33509915 -99.95985058 112.85157956 C-102.47205759 115.36639665 -104.98430595 117.88117243 -107.49657488 120.39592767 C-128.33746446 141.25754981 -149.17102364 162.12648329 -170 183 C-171.98 181.68 -173.96 180.36 -176 179 C-181.28 184.28 -186.56 189.56 -192 195 C-192.66 194.67 -193.32 194.34 -194 194 C-129.98 129.98 -65.96 65.96 0 0 Z " fill="#E8E6E3" transform="translate(511,457)"/>
<path d="M0 0 C0.66 0.66 1.32 1.32 2 2 C0.35 3.98 -1.3 5.96 -3 8 C-3.99 7.01 -4.98 6.02 -6 5 C-4.02 3.35 -2.04 1.7 0 0 Z " fill="#D2D0CD" transform="translate(529,474)"/>
</svg>
